<?xml version="1.0" encoding="UTF-8"?>
<!DOCTYPE svg PUBLIC "-//W3C//DTD SVG 1.1//EN" "http://www.w3.org/Graphics/SVG/1.1/DTD/svg11.dtd">
<!-- Creator: CorelDRAW X7 -->
<svg xmlns="http://www.w3.org/2000/svg" xml:space="preserve" width="1.1811in" height="1.1811in" version="1.1" style="shape-rendering:geometricPrecision; text-rendering:geometricPrecision; image-rendering:optimizeQuality; fill-rule:evenodd; clip-rule:evenodd"
viewBox="0 0 1181 1181"
 xmlns:xlink="http://www.w3.org/1999/xlink">
 <defs>
  <style type="text/css">
   <![CDATA[
    .fil0 {fill:#727376}
    .fil1 {fill:#6D6E70;fill-rule:nonzero}
   ]]>
  </style>
 </defs>
 <g id="Layer_x0020_1">
  <metadata id="CorelCorpID_0Corel-Layer"/>
  <path class="fil0" d="M613 205l0 0c108,0 197,89 197,197l0 30 59 0 0 409 -512 0 0 -409 59 0 0 -30c0,-108 88,-197 197,-197zm0 351c20,0 37,16 37,35 0,12 -8,23 -19,29 3,11 4,23 4,37 0,37 -10,66 -22,66 -12,0 -22,-29 -22,-66 0,-14 1,-26 3,-37 -11,-6 -18,-17 -18,-29 0,-19 16,-35 37,-35zm-131 -124l262 0 0 -27c0,-72 -59,-131 -131,-131l0 0c-72,0 -131,59 -131,131l0 27z"/>
 </g>
 <g id="__x0023_Layer_x0020_1">
  <metadata id="CorelCorpID_1Corel-Layer"/>
  <g id="_274147640">
   <path class="fil1" d="M1089 350l-37 -238 -57 58c-218,-207 -563,-204 -777,10l86 86c166,-166 434,-169 604,-10l-57 57 238 37z"/>
   <path class="fil1" d="M180 276l-186 153 79 20c-67,293 112,588 404,663l31 -118c-228,-58 -367,-287 -317,-515l78 20 -89 -223z"/>
   <path class="fil1" d="M582 1096l228 78 -24 -77c284,-96 443,-403 354,-691l-117 36c70,224 -53,462 -273,538l-24 -77 -144 193z"/>
  </g>
 </g>
</svg>
