<?xml version="1.0" encoding="UTF-8"?>
<!DOCTYPE svg PUBLIC "-//W3C//DTD SVG 1.1//EN" "http://www.w3.org/Graphics/SVG/1.1/DTD/svg11.dtd">
<!-- Creator: CorelDRAW X7 -->
<svg xmlns="http://www.w3.org/2000/svg" xml:space="preserve" width="1.1811in" height="1.1811in" version="1.1" style="shape-rendering:geometricPrecision; text-rendering:geometricPrecision; image-rendering:optimizeQuality; fill-rule:evenodd; clip-rule:evenodd"
viewBox="0 0 1181 1181"
 xmlns:xlink="http://www.w3.org/1999/xlink">
 <defs>
  <style type="text/css">
   <![CDATA[
    .fil0 {fill:#727376;fill-rule:nonzero}
   ]]>
  </style>
 </defs>
 <g id="Layer_x0020_1">
  <metadata id="CorelCorpID_0Corel-Layer"/>
  <polygon class="fil0" points="533,895 623,895 623,725 533,725 "/>
  <polygon class="fil0" points="683,895 774,895 774,674 683,674 "/>
  <polygon class="fil0" points="834,895 925,895 925,596 834,596 "/>
  <polygon class="fil0" points="985,895 1076,895 1076,388 985,388 "/>
  <path class="fil0" d="M1039 333l-42 -128 -128 47 47 23c-82,202 -116,317 -383,422 331,-74 354,-175 456,-389l50 25z"/>
  <polygon class="fil0" points="484,914 484,830 503,830 503,801 484,801 484,699 503,699 503,670 484,670 484,568 503,568 503,539 484,539 484,437 503,437 503,408 484,408 484,388 445,388 445,953 1119,953 1119,914 "/>
  <path class="fil0" d="M148 114c-15,-14 -35,-22 -56,-22l0 0c0,0 0,0 0,0 0,0 0,0 -1,0l0 0c-21,0 -40,8 -55,22 -15,14 -24,34 -24,55 0,18 14,40 27,61 1,2 2,4 3,5 1,2 2,4 3,6 3,5 6,9 10,14l0 9c-3,0 -4,2 -4,5 0,2 2,4 4,5l0 2c-2,1 -4,3 -4,5 0,3 2,4 4,5 0,10 8,15 17,17 3,6 11,10 20,10 9,0 16,-4 20,-10 9,-2 17,-7 17,-17l0 -3c2,0 4,-2 4,-5 0,-2 -2,-4 -4,-5l0 -2c3,-1 4,-3 4,-5 0,-3 -2,-5 -4,-5l0 -6c4,-5 7,-9 9,-14 1,-2 3,-4 4,-6 1,-1 2,-3 3,-5 13,-21 26,-43 26,-61 0,-21 -8,-41 -23,-55zm-37 170l0 0c-2,2 -10,4 -19,4 -7,0 -13,-1 -17,-2l36 -2 0 0zm0 -10l0 0 -39 1 0 -2 39 -1 0 2zm-50 -94l0 0 -1 0c0,0 0,-1 0,-1 0,-4 4,-7 9,-7 1,0 2,0 3,1 -2,1 -4,3 -4,6 0,2 2,5 4,6 -1,0 -2,1 -3,1 -3,0 -6,-2 -8,-4l0 -2zm62 0l0 0 0 0 -1 2c-1,2 -4,4 -7,4 -1,0 -2,-1 -3,-1 2,-1 4,-4 4,-6 0,-3 -2,-5 -4,-6 1,-1 2,-1 3,-1 5,0 9,3 9,7 0,0 0,1 -1,1zm-9 -1l0 0c0,2 -1,4 -4,5 -2,-1 -4,-3 -4,-5 0,-3 2,-5 4,-6 3,1 4,3 4,6zm-5 6l0 0c-1,0 -2,1 -3,1 -1,0 -2,-1 -3,-1 1,-1 2,-2 3,-3 0,1 1,2 3,3zm-3 -9l0 0c-1,-1 -2,-3 -3,-3 1,-1 2,-1 3,-1 1,0 2,0 3,1 -2,0 -3,2 -3,3zm-1 3l0 0c0,2 -1,4 -4,5 -2,-1 -4,-3 -4,-5 0,-3 2,-5 4,-6 3,1 4,3 4,6zm-5 6l0 0c-1,0 -2,1 -4,1 -1,0 -2,-1 -3,-1 2,-1 3,-2 3,-3 1,1 2,2 4,3zm-4 -9l0 0c0,-1 -1,-3 -3,-3 1,-1 2,-1 3,-1 2,0 3,0 4,1 -2,0 -3,2 -4,3zm0 3l0 0c0,2 -2,4 -4,5 -3,-1 -4,-3 -4,-5 0,-3 1,-5 4,-6 2,1 4,3 4,6zm-6 6l0 0c-1,0 -2,1 -3,1 -1,0 -2,-1 -3,-1 2,-1 3,-2 3,-3 1,1 2,2 3,3zm-3 -9l0 0c0,-1 -1,-3 -3,-3 1,-1 2,-1 3,-1 1,0 2,0 3,1 -1,0 -2,2 -3,3zm0 3l0 0c0,2 -2,4 -4,5 -3,-1 -4,-3 -4,-5 0,-3 1,-5 4,-6 2,1 4,3 4,6zm-6 6l0 0c-1,0 -2,1 -3,1 -1,0 -2,-1 -3,-1 1,-1 2,-2 3,-3 1,1 2,2 3,3zm-3 -9l0 0c-1,-1 -2,-3 -3,-3 1,-1 2,-1 3,-1 1,0 2,0 3,1 -1,0 -2,2 -3,3zm-1 3l0 0c0,2 -1,4 -4,5 -2,-1 -4,-3 -4,-5 0,-3 2,-5 4,-6 3,1 4,3 4,6zm-8 8l0 0c1,0 3,-1 4,-1 2,0 3,1 5,1 2,0 3,-1 5,-1 1,0 3,1 4,1 2,0 4,-1 5,-1 1,0 3,1 4,1 2,0 4,-1 5,-1 2,0 3,1 5,1 1,0 3,-1 4,-1 2,0 3,1 5,1 3,0 5,-1 7,-2l-21 65c-2,0 -5,0 -9,0 -4,0 -7,0 -10,0l-20 -65c2,1 4,2 7,2zm61 34l0 0c-1,1 -2,3 -3,5 -2,2 -3,4 -4,6 -4,8 -7,13 -14,16l16 -68 0 0c0,0 0,-1 0,-1 0,-5 -5,-8 -10,-8 -2,0 -3,0 -5,1 -1,-1 -3,-1 -4,-1 -2,0 -3,0 -5,1 -1,-1 -3,-1 -5,-1 -1,0 -3,0 -4,1 -1,-1 -3,-1 -5,-1 -1,0 -3,0 -4,1 -2,-1 -3,-1 -5,-1 -2,0 -3,0 -5,1 -1,-1 -3,-1 -4,-1 -6,0 -10,3 -10,8 0,0 0,1 0,1l0 0 16 68c-7,-3 -10,-8 -14,-16 -1,-2 -2,-4 -4,-6 -1,-2 -2,-4 -3,-5 -11,-18 -24,-39 -24,-52 0,-34 27,-59 62,-59 35,0 62,25 62,59 0,13 -13,34 -24,52z"/>
  <path class="fil0" d="M148 384c-15,-14 -35,-22 -56,-22l0 0c0,0 0,0 0,0 0,0 0,0 -1,0l0 0c-21,0 -40,8 -55,22 -15,14 -24,33 -24,55 0,18 14,40 27,61 1,1 2,3 3,5 1,2 2,4 3,6 3,4 6,9 10,13l0 9c-3,1 -4,3 -4,5 0,3 2,5 4,5l0 3c-2,1 -4,3 -4,5 0,2 2,4 4,5 0,10 8,15 17,17 3,6 11,10 20,10 9,0 16,-4 20,-10 9,-3 17,-8 17,-18l0 -2c2,-1 4,-3 4,-5 0,-2 -2,-4 -4,-5l0 -2c3,-1 4,-3 4,-6 0,-2 -2,-4 -4,-5l0 -6c4,-4 7,-9 9,-13 1,-2 3,-4 4,-6 1,-2 2,-4 3,-5 13,-21 26,-43 26,-61 0,-22 -8,-41 -23,-55zm-37 170l0 0c-2,2 -10,4 -19,4 -7,0 -13,-1 -17,-3l36 -1 0 0zm0 -11l0 0 -39 2 0 -2 39 -2 0 2zm-50 -94l0 0 -1 1c0,-1 0,-1 0,-2 0,-3 4,-6 9,-6 1,0 2,0 3,0 -2,2 -4,4 -4,6 0,3 2,5 4,7 -1,0 -2,0 -3,0 -3,0 -6,-1 -8,-3l0 -3zm62 1l0 0 0 -1 -1 3c-1,2 -4,3 -7,3 -1,0 -2,0 -3,0 2,-2 4,-4 4,-7 0,-2 -2,-4 -4,-6 1,0 2,0 3,0 5,0 9,3 9,6 0,1 0,1 -1,2zm-9 -2l0 0c0,3 -1,5 -4,6 -2,-1 -4,-3 -4,-6 0,-2 2,-4 4,-5 3,1 4,3 4,5zm-5 7l0 0c-1,0 -2,0 -3,0 -1,0 -2,0 -3,0 1,-1 2,-2 3,-4 0,2 1,3 3,4zm-3 -9l0 0c-1,-2 -2,-3 -3,-4 1,0 2,0 3,0 1,0 2,0 3,0 -2,1 -3,2 -3,4zm-1 2l0 0c0,3 -1,5 -4,6 -2,-1 -4,-3 -4,-6 0,-2 2,-4 4,-5 3,1 4,3 4,5zm-5 7l0 0c-1,0 -2,0 -4,0 -1,0 -2,0 -3,0 2,-1 3,-2 3,-4 1,2 2,3 4,4zm-4 -9l0 0c0,-2 -1,-3 -3,-4 1,0 2,0 3,0 2,0 3,0 4,0 -2,1 -3,2 -4,4zm0 2l0 0c0,3 -2,5 -4,6 -3,-1 -4,-3 -4,-6 0,-2 1,-4 4,-5 2,1 4,3 4,5zm-6 7l0 0c-1,0 -2,0 -3,0 -1,0 -2,0 -3,0 2,-1 3,-2 3,-4 1,2 2,3 3,4zm-3 -9l0 0c0,-2 -1,-3 -3,-4 1,0 2,0 3,0 1,0 2,0 3,0 -1,1 -2,2 -3,4zm0 2l0 0c0,3 -2,5 -4,6 -3,-1 -4,-3 -4,-6 0,-2 1,-4 4,-5 2,1 4,3 4,5zm-6 7l0 0c-1,0 -2,0 -3,0 -1,0 -2,0 -3,0 1,-1 2,-2 3,-4 1,2 2,3 3,4zm-3 -9l0 0c-1,-2 -2,-3 -3,-4 1,0 2,0 3,0 1,0 2,0 3,0 -1,1 -2,2 -3,4zm-1 2l0 0c0,3 -1,5 -4,6 -2,-1 -4,-3 -4,-6 0,-2 2,-4 4,-5 3,1 4,3 4,5zm-8 8l0 0c1,0 3,0 4,0 2,0 3,0 5,0 2,0 3,0 5,0 1,0 3,0 4,0 2,0 4,0 5,0 1,0 3,0 4,0 2,0 4,0 5,0 2,0 3,0 5,0 1,0 3,0 4,0 2,0 3,0 5,0 3,0 5,0 7,-2l-21 65c-2,1 -5,1 -9,1 -4,0 -7,0 -10,-1l-20 -65c2,2 4,2 7,2zm61 34l0 0c-1,2 -2,4 -3,6 -2,2 -3,4 -4,6 -4,7 -7,12 -14,15l16 -67 0 0c0,-1 0,-1 0,-2 0,-4 -5,-8 -10,-8 -2,0 -3,1 -5,1 -1,0 -3,-1 -4,-1 -2,0 -3,1 -5,1 -1,0 -3,-1 -5,-1 -1,0 -3,1 -4,1 -1,0 -3,-1 -5,-1 -1,0 -3,1 -4,1 -2,0 -3,-1 -5,-1 -2,0 -3,1 -5,1 -1,0 -3,-1 -4,-1 -6,0 -10,4 -10,8 0,1 0,1 0,2l0 0 16 67c-7,-3 -10,-8 -14,-15 -1,-2 -2,-4 -4,-6 -1,-2 -2,-4 -3,-6 -11,-18 -24,-38 -24,-51 0,-34 27,-59 62,-59 35,0 62,25 62,59 0,13 -13,33 -24,51z"/>
  <path class="fil0" d="M148 653c-15,-14 -35,-21 -56,-21l0 0c0,0 0,0 0,0 0,0 0,0 -1,0l0 0c-21,0 -40,7 -55,21 -15,14 -24,34 -24,55 0,19 14,40 27,61 1,2 2,4 3,6 1,2 2,3 3,5 3,5 6,10 10,14l0 9c-3,1 -4,3 -4,5 0,2 2,4 4,5l0 3c-2,0 -4,2 -4,5 0,2 2,4 4,5 0,9 8,14 17,17 3,5 11,9 20,9 9,0 16,-4 20,-9 9,-3 17,-8 17,-18l0 -2c2,-1 4,-3 4,-5 0,-3 -2,-4 -4,-5l0 -3c3,0 4,-2 4,-5 0,-2 -2,-4 -4,-5l0 -6c4,-4 7,-9 9,-14 1,-2 3,-3 4,-5 1,-2 2,-4 3,-6 13,-21 26,-42 26,-61 0,-21 -8,-41 -23,-55zm-37 171l0 0c-2,1 -10,4 -19,4 -7,0 -13,-2 -17,-3l36 -1 0 0zm0 -11l0 0 -39 2 0 -2 39 -2 0 2zm-50 -94l0 0 -1 0c0,0 0,0 0,-1 0,-4 4,-7 9,-7 1,0 2,1 3,1 -2,1 -4,4 -4,6 0,3 2,5 4,6 -1,1 -2,1 -3,1 -3,0 -6,-1 -8,-3l0 -3zm62 0l0 0 0 0 -1 3c-1,2 -4,3 -7,3 -1,0 -2,0 -3,-1 2,-1 4,-3 4,-6 0,-2 -2,-5 -4,-6 1,0 2,-1 3,-1 5,0 9,3 9,7 0,1 0,1 -1,1zm-9 -1l0 0c0,3 -1,5 -4,6 -2,-1 -4,-3 -4,-6 0,-2 2,-4 4,-5 3,1 4,3 4,5zm-5 6l0 0c-1,1 -2,1 -3,1 -1,0 -2,0 -3,-1 1,0 2,-2 3,-3 0,1 1,3 3,3zm-3 -9l0 0c-1,-1 -2,-2 -3,-3 1,0 2,-1 3,-1 1,0 2,1 3,1 -2,1 -3,2 -3,3zm-1 3l0 0c0,3 -1,5 -4,6 -2,-1 -4,-3 -4,-6 0,-2 2,-4 4,-5 3,1 4,3 4,5zm-5 6l0 0c-1,1 -2,1 -4,1 -1,0 -2,0 -3,-1 2,0 3,-2 3,-3 1,1 2,3 4,3zm-4 -9l0 0c0,-1 -1,-2 -3,-3 1,0 2,-1 3,-1 2,0 3,1 4,1 -2,1 -3,2 -4,3zm0 3l0 0c0,3 -2,5 -4,6 -3,-1 -4,-3 -4,-6 0,-2 1,-4 4,-5 2,1 4,3 4,5zm-6 6l0 0c-1,1 -2,1 -3,1 -1,0 -2,0 -3,-1 2,0 3,-2 3,-3 1,1 2,3 3,3zm-3 -9l0 0c0,-1 -1,-2 -3,-3 1,0 2,-1 3,-1 1,0 2,1 3,1 -1,1 -2,2 -3,3zm0 3l0 0c0,3 -2,5 -4,6 -3,-1 -4,-3 -4,-6 0,-2 1,-4 4,-5 2,1 4,3 4,5zm-6 6l0 0c-1,1 -2,1 -3,1 -1,0 -2,0 -3,-1 1,0 2,-2 3,-3 1,1 2,3 3,3zm-3 -9l0 0c-1,-1 -2,-2 -3,-3 1,0 2,-1 3,-1 1,0 2,1 3,1 -1,1 -2,2 -3,3zm-1 3l0 0c0,3 -1,5 -4,6 -2,-1 -4,-3 -4,-6 0,-2 2,-4 4,-5 3,1 4,3 4,5zm-8 8l0 0c1,0 3,0 4,-1 2,1 3,1 5,1 2,0 3,0 5,-1 1,1 3,1 4,1 2,0 4,0 5,-1 1,1 3,1 4,1 2,0 4,0 5,-1 2,1 3,1 5,1 1,0 3,0 4,-1 2,1 3,1 5,1 3,0 5,-1 7,-2l-21 65c-2,1 -5,1 -9,1 -4,0 -7,0 -10,-1l-20 -65c2,1 4,2 7,2zm61 34l0 0c-1,2 -2,4 -3,6 -2,2 -3,3 -4,5 -4,8 -7,13 -14,16l16 -67 0 0c0,-1 0,-1 0,-2 0,-4 -5,-8 -10,-8 -2,0 -3,1 -5,1 -1,0 -3,-1 -4,-1 -2,0 -3,1 -5,1 -1,0 -3,-1 -5,-1 -1,0 -3,1 -4,1 -1,0 -3,-1 -5,-1 -1,0 -3,1 -4,1 -2,0 -3,-1 -5,-1 -2,0 -3,1 -5,1 -1,0 -3,-1 -4,-1 -6,0 -10,4 -10,8 0,1 0,1 0,2l0 0 16 67c-7,-3 -10,-8 -14,-16 -1,-2 -2,-3 -4,-5 -1,-2 -2,-4 -3,-6 -11,-18 -24,-38 -24,-52 0,-33 27,-58 62,-59 35,1 62,26 62,59 0,14 -13,34 -24,52z"/>
  <path class="fil0" d="M148 923c-15,-14 -35,-21 -56,-22l0 0c0,0 0,0 0,0 0,0 0,0 -1,0l0 0c-21,1 -40,8 -55,22 -15,14 -24,34 -24,55 0,18 14,40 27,61 1,2 2,4 3,6 1,1 2,3 3,5 3,5 6,9 10,14l0 9c-3,0 -4,2 -4,5 0,2 2,4 4,5l0 2c-2,1 -4,3 -4,6 0,2 2,4 4,4 0,10 8,15 17,17 3,6 11,10 20,10 9,0 16,-4 20,-10 9,-2 17,-7 17,-17l0 -2c2,-1 4,-3 4,-6 0,-2 -2,-4 -4,-4l0 -3c3,-1 4,-3 4,-5 0,-3 -2,-5 -4,-5l0 -6c4,-5 7,-9 9,-14 1,-2 3,-4 4,-5 1,-2 2,-4 3,-6 13,-21 26,-43 26,-61 0,-21 -8,-41 -23,-55zm-37 171l0 0c-2,1 -10,3 -19,3 -7,0 -13,-1 -17,-2l36 -1 0 0zm0 -11l0 0 -39 1 0 -2 39 -1 0 2zm-50 -94l0 0 -1 0c0,0 0,-1 0,-1 0,-4 4,-7 9,-7 1,0 2,0 3,1 -2,1 -4,3 -4,6 0,2 2,5 4,6 -1,0 -2,1 -3,1 -3,0 -6,-2 -8,-4l0 -2zm62 0l0 0 0 0 -1 2c-1,2 -4,4 -7,4 -1,0 -2,-1 -3,-1 2,-1 4,-4 4,-6 0,-3 -2,-5 -4,-6 1,-1 2,-1 3,-1 5,0 9,3 9,7 0,0 0,1 -1,1zm-9 -1l0 0c0,2 -1,4 -4,6 -2,-2 -4,-4 -4,-6 0,-2 2,-5 4,-6 3,1 4,4 4,6zm-5 6l0 0c-1,0 -2,1 -3,1 -1,0 -2,-1 -3,-1 1,-1 2,-2 3,-3 0,1 1,2 3,3zm-3 -9l0 0c-1,-1 -2,-2 -3,-3 1,-1 2,-1 3,-1 1,0 2,0 3,1 -2,1 -3,2 -3,3zm-1 3l0 0c0,2 -1,4 -4,6 -2,-2 -4,-4 -4,-6 0,-2 2,-5 4,-6 3,1 4,4 4,6zm-5 6l0 0c-1,0 -2,1 -4,1 -1,0 -2,-1 -3,-1 2,-1 3,-2 3,-3 1,1 2,2 4,3zm-4 -9l0 0c0,-1 -1,-2 -3,-3 1,-1 2,-1 3,-1 2,0 3,0 4,1 -2,1 -3,2 -4,3zm0 3l0 0c0,2 -2,4 -4,6 -3,-2 -4,-4 -4,-6 0,-2 1,-5 4,-6 2,1 4,4 4,6zm-6 6l0 0c-1,0 -2,1 -3,1 -1,0 -2,-1 -3,-1 2,-1 3,-2 3,-3 1,1 2,2 3,3zm-3 -9l0 0c0,-1 -1,-2 -3,-3 1,-1 2,-1 3,-1 1,0 2,0 3,1 -1,1 -2,2 -3,3zm0 3l0 0c0,2 -2,4 -4,6 -3,-2 -4,-4 -4,-6 0,-2 1,-5 4,-6 2,1 4,4 4,6zm-6 6l0 0c-1,0 -2,1 -3,1 -1,0 -2,-1 -3,-1 1,-1 2,-2 3,-3 1,1 2,2 3,3zm-3 -9l0 0c-1,-1 -2,-2 -3,-3 1,-1 2,-1 3,-1 1,0 2,0 3,1 -1,1 -2,2 -3,3zm-1 3l0 0c0,2 -1,4 -4,6 -2,-2 -4,-4 -4,-6 0,-2 2,-5 4,-6 3,1 4,4 4,6zm-8 8l0 0c1,0 3,0 4,-1 2,1 3,1 5,1 2,0 3,0 5,-1 1,1 3,1 4,1 2,0 4,0 5,-1 1,1 3,1 4,1 2,0 4,0 5,-1 2,1 3,1 5,1 1,0 3,0 4,-1 2,1 3,1 5,1 3,0 5,-1 7,-2l-21 65c-2,0 -5,1 -9,1 -4,0 -7,-1 -10,-1l-20 -65c2,1 4,2 7,2zm61 34l0 0c-1,2 -2,3 -3,5 -2,2 -3,4 -4,6 -4,8 -7,13 -14,16l16 -68 0 0c0,0 0,-1 0,-1 0,-5 -5,-8 -10,-8 -2,0 -3,0 -5,1 -1,-1 -3,-1 -4,-1 -2,0 -3,0 -5,1 -1,-1 -3,-1 -5,-1 -1,0 -3,0 -4,1 -1,-1 -3,-1 -5,-1 -1,0 -3,0 -4,1 -2,-1 -3,-1 -5,-1 -2,0 -3,0 -5,1 -1,-1 -3,-1 -4,-1 -6,0 -10,3 -10,8 0,0 0,1 0,1l0 0 16 68c-7,-3 -10,-8 -14,-16 -1,-2 -2,-4 -4,-6 -1,-2 -2,-3 -3,-5 -11,-18 -24,-39 -24,-52 0,-33 27,-59 62,-59 35,0 62,26 62,59 0,13 -13,34 -24,52z"/>
  <polygon class="fil0" points="377,594 322,594 322,189 216,189 216,216 296,216 296,459 216,459 216,485 296,485 296,729 216,729 216,755 296,755 296,999 216,999 216,1025 322,1025 322,620 377,620 "/>
 </g>
</svg>
