<?xml version="1.0" encoding="UTF-8"?>
<!DOCTYPE svg PUBLIC "-//W3C//DTD SVG 1.1//EN" "http://www.w3.org/Graphics/SVG/1.1/DTD/svg11.dtd">
<!-- Creator: CorelDRAW X7 -->
<svg xmlns="http://www.w3.org/2000/svg" xml:space="preserve" width="1.1811in" height="1.1811in" version="1.1" style="shape-rendering:geometricPrecision; text-rendering:geometricPrecision; image-rendering:optimizeQuality; fill-rule:evenodd; clip-rule:evenodd"
viewBox="0 0 1181 1181"
 xmlns:xlink="http://www.w3.org/1999/xlink">
 <defs>
  <style type="text/css">
   <![CDATA[
    .fil0 {fill:#6D6E70;fill-rule:nonzero}
   ]]>
  </style>
 </defs>
 <g id="Layer_x0020_1">
  <metadata id="CorelCorpID_0Corel-Layer"/>
  <g id="_275664616">
   <path class="fil0" d="M425 302c32,0 58,-26 58,-58 0,-32 -26,-58 -58,-58 -32,0 -59,26 -59,58 0,32 27,58 59,58z"/>
   <path class="fil0" d="M714 128c-76,-70 -178,-110 -287,-111l0 0c-1,0 -2,0 -2,0 -1,0 -2,0 -2,0l0 0c-110,1 -211,41 -287,111 -79,74 -122,175 -122,285 0,94 69,206 137,315 5,9 11,18 17,28 6,9 11,19 16,28 15,24 29,49 49,71l0 51c-12,4 -19,15 -19,27 1,12 8,21 19,25l0 24c-11,4 -19,15 -18,27 0,11 8,21 18,25 1,50 44,75 90,88 17,29 56,49 102,49 45,0 85,-20 102,-49 46,-13 90,-39 90,-91l0 -12c11,-4 18,-14 18,-26 -1,-12 -8,-21 -18,-25l0 -24c12,-3 22,-14 21,-27 0,-13 -9,-23 -21,-26l0 -36c20,-22 34,-47 48,-71 5,-9 11,-19 16,-28 6,-10 12,-19 18,-28 67,-109 137,-221 137,-315 0,-110 -44,-211 -122,-285zm-189 897l0 0c-13,8 -54,19 -100,19 -34,0 -65,-6 -85,-12l185 -8 0 1zm0 -56l0 0 -201 8 0 -21 201 -8 0 21zm-96 -90l0 0 -9 0 0 -285 9 0 0 285zm225 -163l0 0c-7,11 -13,22 -20,33 -8,12 -15,24 -21,35 -26,46 -44,77 -85,95l-15 0 -10 0 0 -285 0 -3 0 -192c0,0 4,-7 9,-6l0 203c0,11 9,19 19,19l16 0c10,0 19,-8 19,-19l0 -237c0,-6 -3,-11 -7,-15 -4,-5 -11,-7 -19,-10 -16,-4 -70,-19 -70,-19l-24 97 -9 -60 13 -19 -25 -16 -26 16 13 19 -8 60 -24 -97c0,0 -54,15 -70,19 -9,3 -15,5 -19,10 -4,4 -7,9 -7,15l0 237c0,11 8,19 19,19l15 0c11,0 19,-8 19,-19l0 -203c6,-1 9,6 9,6l0 192 0 3 0 285 -10 0 -15 0c-40,-18 -58,-49 -84,-95 -7,-11 -14,-23 -21,-35 -7,-11 -14,-22 -21,-33 -67,-109 -143,-232 -143,-312 0,-202 160,-354 373,-355 213,1 373,153 373,355 0,80 -76,203 -144,312z"/>
  </g>
 </g>
</svg>
