<?xml version="1.0" encoding="UTF-8"?>
<!DOCTYPE svg PUBLIC "-//W3C//DTD SVG 1.1//EN" "http://www.w3.org/Graphics/SVG/1.1/DTD/svg11.dtd">
<!-- Creator: CorelDRAW X7 -->
<svg xmlns="http://www.w3.org/2000/svg" xml:space="preserve" width="1.1811in" height="1.1811in" version="1.1" style="shape-rendering:geometricPrecision; text-rendering:geometricPrecision; image-rendering:optimizeQuality; fill-rule:evenodd; clip-rule:evenodd"
viewBox="0 0 1181 1181"
 xmlns:xlink="http://www.w3.org/1999/xlink">
 <defs>
  <style type="text/css">
   <![CDATA[
    .fil1 {fill:#727376;fill-rule:nonzero}
    .fil0 {fill:#A7A8AC;fill-rule:nonzero}
    .fil2 {fill:#EDE9E4;fill-rule:nonzero}
   ]]>
  </style>
 </defs>
 <g id="Layer_x0020_1">
  <metadata id="CorelCorpID_0Corel-Layer"/>
  <path class="fil0" d="M227 240c0,-25 5,-48 13,-71 -122,5 -219,85 -219,184 0,67 44,125 110,157 -3,12 -7,22 -16,38 -12,22 -39,48 -39,48 0,0 48,-12 76,-27 20,-12 34,-25 44,-37 18,3 36,5 54,5 73,0 137,-27 179,-69 -117,-33 -202,-122 -202,-228z"/>
  <path class="fil1" d="M806 241c0,-126 -127,-228 -284,-228 -157,0 -285,102 -285,228 0,126 128,229 285,229 23,0 45,-3 67,-7 12,15 30,32 55,46 34,19 94,33 94,33 0,0 -34,-32 -49,-59 -11,-19 -16,-32 -19,-47 82,-40 136,-112 136,-195z"/>
  <path class="fil2" d="M609 116c-22,-21 -51,-32 -83,-33l0 0c0,0 0,0 0,0 0,0 -1,0 -1,0l0 0c-31,1 -61,12 -83,33 -23,21 -35,50 -35,82 0,27 20,60 39,91 2,3 4,5 6,8 1,3 3,6 4,8 4,7 8,14 14,21l0 13c-3,1 -5,4 -5,8 0,3 2,6 5,7l0 4c-3,1 -5,4 -5,8 0,3 2,6 5,7 1,14 13,22 26,26 5,8 17,14 30,14 13,0 24,-6 29,-14 14,-4 26,-12 26,-27l0 -3c4,-1 6,-4 6,-8 -1,-3 -3,-6 -6,-7l0 -4c4,-1 7,-4 6,-8 0,-4 -2,-6 -6,-7l0 -9c6,-7 10,-14 14,-21 2,-2 3,-5 5,-8 2,-3 3,-5 5,-8 20,-31 40,-64 40,-91 0,-32 -13,-61 -36,-82zm-54 254l0 0c-4,3 -16,6 -29,6 -10,0 -19,-2 -25,-4l54 -2 0 0zm0 -16l0 0 -58 3 0 -3 58 -3 0 3zm-76 -140l0 0 0 0c0,0 -1,-1 -1,-1 0,-6 6,-10 13,-10 2,0 4,0 5,0 -3,2 -6,6 -6,10 0,3 3,7 6,9 -1,0 -3,1 -5,1 -4,0 -8,-2 -11,-5l-1 -4zm94 0l0 0 -1 0 -1 4c-2,3 -6,5 -11,5 -1,0 -3,-1 -4,-1 3,-2 5,-6 5,-9 0,-4 -2,-8 -5,-10 1,0 3,0 4,0 7,0 13,4 13,10 0,0 0,1 0,1zm-14 -1l0 0c0,3 -2,6 -6,8 -3,-2 -6,-5 -6,-8 0,-4 3,-7 6,-9 4,2 6,5 6,9zm-8 9l0 0c-1,0 -3,1 -5,1 -1,0 -3,-1 -4,-1 2,-1 4,-3 4,-5 1,2 3,4 5,5zm-5 -14l0 0c0,-2 -2,-3 -4,-5 1,0 3,0 4,0 2,0 4,0 5,0 -2,2 -4,3 -5,5zm0 5l0 0c0,3 -3,6 -6,8 -4,-2 -6,-5 -6,-8 0,-4 2,-7 6,-9 3,2 6,5 6,9zm-9 9l0 0c-1,0 -3,1 -4,1 -2,0 -4,-1 -5,-1 2,-1 4,-3 5,-5 1,2 2,4 4,5zm-4 -14l0 0c-1,-2 -3,-3 -5,-5 1,0 3,0 5,0 1,0 3,0 4,0 -2,2 -3,3 -4,5zm-1 5l0 0c0,3 -3,6 -6,8 -4,-2 -6,-5 -6,-8 0,-4 2,-7 6,-9 3,2 6,5 6,9zm-8 9l0 0c-2,0 -3,1 -5,1 -2,0 -3,-1 -5,-1 2,-1 4,-3 5,-5 1,2 2,4 5,5zm-5 -14l0 0c-1,-2 -3,-3 -5,-5 2,0 3,0 5,0 2,0 3,0 5,0 -3,2 -4,3 -5,5zm-1 5l0 0c0,3 -2,6 -6,8 -4,-2 -6,-5 -6,-8 0,-4 2,-7 6,-9 4,2 6,5 6,9zm-8 9l0 0c-2,0 -3,1 -5,1 -2,0 -3,-1 -5,-1 3,-1 4,-3 5,-5 1,2 3,4 5,5zm-5 -14l0 0c-1,-2 -2,-3 -5,-5 2,0 3,0 5,0 2,0 3,0 5,0 -2,2 -4,3 -5,5zm-1 5l0 0c0,3 -2,6 -6,8 -3,-2 -6,-5 -6,-8 0,-4 3,-7 6,-9 4,2 6,5 6,9zm-13 12l0 0c3,0 5,-1 7,-2 2,1 5,2 7,2 3,0 5,-1 7,-2 2,1 4,2 7,2 2,0 5,-1 7,-2 2,1 4,2 7,2 2,0 5,-1 7,-2 2,1 4,2 6,2 3,0 5,-1 7,-2 2,1 5,2 7,2 4,0 8,-2 10,-4l-30 98c-4,0 -9,0 -14,1 -6,-1 -10,-1 -14,-1l-31 -98c3,2 7,4 10,4zm92 50l0 0c-2,3 -4,6 -6,8 -1,3 -3,6 -5,9 -6,11 -11,19 -21,23l24 -100 0 0c0,-1 0,-2 0,-2 0,-7 -7,-12 -15,-12 -2,0 -5,0 -7,1 -2,-1 -4,-1 -7,-1 -2,0 -4,0 -6,1 -2,-1 -5,-1 -7,-1 -3,0 -5,0 -7,1 -2,-1 -5,-1 -7,-1 -3,0 -5,0 -7,1 -2,-1 -4,-1 -7,-1 -2,0 -5,0 -7,1 -2,-1 -4,-1 -7,-1 -8,0 -14,5 -14,12 0,0 0,1 0,2l0 0 23 100c-10,-4 -14,-12 -21,-23 -1,-3 -3,-6 -5,-9 -2,-2 -3,-5 -5,-8 -17,-27 -36,-57 -36,-77 0,-50 40,-88 93,-88 52,0 92,38 92,88 0,20 -19,50 -35,77z"/>
  <g id="_417384904">
   <path class="fil1" d="M845 847c-6,-20 -14,-25 -30,-30 -16,-4 -92,-21 -92,-21 0,0 0,0 0,0l-8 -7 -2 0 -5 -21c24,-24 40,-65 40,-94 0,-44 -35,-79 -79,-79 -44,0 -79,35 -79,79 0,29 16,70 40,94l-6 21 0 0 -9 7c0,0 0,0 0,0 0,0 -29,6 -54,12 -4,28 -11,57 -31,77l7 38c0,0 80,19 100,25 20,6 31,13 39,37 1,3 1,6 2,11 16,0 52,-1 89,-5 66,-6 95,-14 95,-14 0,0 -11,-111 -17,-130zm-198 81l0 0c-6,-17 -13,-34 -16,-45 -8,-23 -13,-61 -15,-79l30 34 5 -4 11 10 -15 84zm-1 -95l0 0 -29 -34 7 -6 42 20 -20 20zm26 -20l0 0 42 -20 8 6 -30 34 -20 -20zm35 70l0 0c-3,10 -9,27 -15,43l-15 -82 11 -10 4 4 30 -34c-2,18 -7,56 -15,79z"/>
   <path class="fil1" d="M226 985c8,-24 19,-31 39,-37 20,-6 100,-26 100,-26l7 -37c-20,-20 -28,-49 -31,-77 -26,-6 -54,-12 -54,-12 0,0 0,0 0,0l-8 -7 -2 0 -5 -21c24,-24 40,-65 40,-94 0,-44 -36,-79 -79,-79 -44,0 -79,35 -79,79 0,29 16,70 40,94l-6 21 -1 0 -8 7c0,0 0,0 0,0 0,0 -76,17 -92,21 -15,5 -24,10 -30,30 -6,19 -17,130 -17,130 0,0 29,8 95,14 37,4 73,5 89,5 1,-5 1,-8 2,-11zm45 -102l0 0c-3,10 -9,27 -16,43l-14 -82 11 -10 4 4 30 -34c-2,18 -7,56 -15,79zm7 -90l0 0 7 6 -29 34 -20 -20 42 -20zm-90 0l0 0 42 20 -20 20 -29 -34 7 -6zm-8 11l0 0 30 34 5 -4 10 10 -14 84c-7,-17 -13,-34 -16,-45 -8,-23 -13,-61 -15,-79z"/>
   <path class="fil1" d="M652 996c-7,-22 -17,-27 -35,-33 -18,-6 -104,-25 -104,-25 0,0 0,0 0,0l-10 -8 -1 1 -7 -24c28,-27 46,-74 46,-108 0,-50 -40,-90 -90,-90 -50,0 -90,40 -90,90 0,34 18,81 45,108l-6 23 -1 0 -9 8c-1,0 -1,0 -1,0 0,0 -86,19 -104,25 -18,6 -28,11 -35,33 -7,22 -19,150 -19,150 0,0 33,8 108,15 58,6 112,6 112,6l0 -6 0 0 0 6c0,0 54,0 112,-6 75,-7 108,-15 108,-15 0,0 -12,-128 -19,-150zm-141 -54l0 0 -34 39 -22 -23 47 -23 9 7zm-111 -7l0 0 47 23 -22 23 -34 -39 9 -7zm-9 13l0 0 34 39 5 -5 12 12 -16 95c-8,-20 -15,-39 -19,-51 -8,-26 -14,-70 -16,-90zm86 139l0 0 -17 -93 12 -12 5 5 34 -39c-2,20 -8,64 -16,90 -4,12 -11,30 -18,49z"/>
  </g>
 </g>
</svg>
