<?xml version="1.0" encoding="UTF-8"?>
<!DOCTYPE svg PUBLIC "-//W3C//DTD SVG 1.1//EN" "http://www.w3.org/Graphics/SVG/1.1/DTD/svg11.dtd">
<!-- Creator: CorelDRAW X7 -->
<svg xmlns="http://www.w3.org/2000/svg" xml:space="preserve" width="1.1811in" height="1.1811in" version="1.1" style="shape-rendering:geometricPrecision; text-rendering:geometricPrecision; image-rendering:optimizeQuality; fill-rule:evenodd; clip-rule:evenodd"
viewBox="0 0 1181 1181"
 xmlns:xlink="http://www.w3.org/1999/xlink">
 <defs>
  <style type="text/css">
   <![CDATA[
    .fil0 {fill:#727376;fill-rule:nonzero}
   ]]>
  </style>
 </defs>
 <g id="Layer_x0020_1">
  <metadata id="CorelCorpID_0Corel-Layer"/>
  <path class="fil0" d="M591 12c-320,0 -579,259 -579,579 0,319 259,578 579,578 319,0 578,-259 578,-578 0,-320 -259,-579 -578,-579zm259 1007l0 0 -14 -25 -18 10 14 25c-65,36 -138,58 -216,62l0 -45 -51 0 0 45c-78,-4 -151,-26 -216,-62l14 -25 -18 -10 -14 25c-69,-42 -127,-100 -169,-169l25 -15 -11 -18 -24 15c-36,-65 -58,-138 -62,-216l45 0 0 -51 -45 0c4,-78 26,-151 62,-216l24 14 11 -18 -25 -14c42,-69 100,-127 169,-169l14 24 18 -10 -14 -24c65,-36 138,-58 216,-62l0 44 51 0 0 -44c78,4 151,26 216,62l-14 24 18 10 14 -24c69,42 127,100 169,169l-25 14 11 18 24 -14c36,65 58,138 62,216l-45 0 0 51 45 0c-4,78 -26,151 -62,216l-24 -15 -11 18 25 15c-42,69 -100,127 -169,169z"/>
  <polygon class="fil0" points="936,425 931,418 543,638 252,489 245,500 473,678 460,686 494,739 525,717 583,763 633,685 597,666 "/>
 </g>
</svg>
