<?xml version="1.0" encoding="UTF-8"?>
<!DOCTYPE svg PUBLIC "-//W3C//DTD SVG 1.1//EN" "http://www.w3.org/Graphics/SVG/1.1/DTD/svg11.dtd">
<!-- Creator: CorelDRAW X7 -->
<svg xmlns="http://www.w3.org/2000/svg" xml:space="preserve" width="1.1811in" height="1.1811in" version="1.1" style="shape-rendering:geometricPrecision; text-rendering:geometricPrecision; image-rendering:optimizeQuality; fill-rule:evenodd; clip-rule:evenodd"
viewBox="0 0 1181 1181"
 xmlns:xlink="http://www.w3.org/1999/xlink">
 <defs>
  <style type="text/css">
   <![CDATA[
    .fil1 {fill:#848688;fill-rule:nonzero}
    .fil0 {fill:#6D6E70;fill-rule:nonzero}
    .fil2 {fill:#A7A8AC;fill-rule:nonzero}
   ]]>
  </style>
 </defs>
 <g id="Layer_x0020_1">
  <metadata id="CorelCorpID_0Corel-Layer"/>
  <g id="_421320960">
   <path class="fil0" d="M8 967c20,8 49,12 62,0 13,-12 180,-307 194,-327 14,-19 10,-40 -11,-44 -20,-4 -245,-76 -245,-76l0 447z"/>
   <path class="fil0" d="M921 956c0,0 -7,3 -26,11 -20,8 -42,12 -56,0 -13,-12 -182,-307 -194,-327 -13,-20 -10,-40 11,-44 20,-4 265,-76 265,-76l0 436z"/>
   <path class="fil0" d="M758 980l73 -24 -13 -21 -48 17 -132 -282 19 -10 -12 -20 -38 19 7 15c-21,-3 -51,-9 -74,-12 -27,-5 -54,-8 -84,1 -20,-12 -43,-22 -62,-22 -13,0 -35,5 -59,10 -11,2 -25,5 -35,7l6 -13 -37 -12 -13 20 17 6 -136 293 -47 -16 -12 20 71 24 11 -22 14 12c-8,11 -14,35 2,52 6,7 15,11 24,11 5,0 10,-1 15,-3 -1,12 2,24 11,35 8,8 18,13 29,13 8,0 15,-2 21,-6 -1,12 1,25 11,35 7,8 16,12 27,12 3,0 6,0 9,-1 0,8 2,17 9,25 6,6 14,10 23,10 10,0 19,-4 25,-10 0,0 4,-4 8,-9 30,19 57,30 77,37 8,3 16,4 23,4 11,0 20,-3 25,-7 8,-6 14,-15 18,-25 3,0 6,1 9,1 13,0 26,-6 36,-15 9,-9 14,-21 15,-33 1,1 3,1 4,2 3,1 6,1 10,1 16,0 33,-12 43,-26 7,-9 10,-18 11,-27 3,1 6,1 10,1 18,0 40,-15 52,-32 10,-14 13,-29 9,-42l18 -14 10 21zm-221 -296l0 0c29,5 72,13 89,16l68 144c-20,2 -55,5 -87,-5 -46,-14 -97,-65 -97,-65l-5 -5 -7 2c0,0 -13,3 -34,9 -24,6 -35,4 -35,4l-13 -2 -1 13c-1,10 -4,37 -14,49 -13,17 -57,45 -77,39 -6,-9 7,-56 15,-84 4,-18 9,-37 13,-53 4,-20 25,-29 63,-43 10,-4 20,-8 30,-12 3,-1 5,-2 8,-3 0,0 0,0 0,0l0 0c29,-11 55,-8 84,-4zm-337 326l0 0c-3,0 -5,-2 -7,-4 -8,-8 -2,-21 0,-23 9,-10 14,-15 19,-20l2 -1c2,-2 5,-3 8,-3 4,0 8,2 9,3 5,5 3,13 2,16 -4,6 -16,20 -23,28 -1,1 -5,4 -10,4zm55 44l0 0c-4,0 -8,-1 -11,-5 -11,-12 -3,-30 0,-32 11,-13 18,-19 24,-25l2 -2c3,-2 7,-4 12,-4 5,0 11,2 13,5 7,6 6,17 2,23 -3,7 -19,25 -28,35 -2,3 -8,5 -14,5zm49 38l0 0c-10,-11 -2,-26 0,-29 11,-11 17,-17 22,-22l2 -2c2,-2 6,-3 10,-3 5,0 10,2 12,4 5,5 4,15 1,19 -3,7 -17,24 -26,33 -1,1 -6,4 -11,4 -4,0 -7,-1 -10,-4zm59 35l0 0c-1,1 -4,3 -8,3 -3,0 -5,-2 -6,-3 -6,-7 -1,-18 0,-20 9,-9 13,-14 18,-18l2 -1c1,-1 3,-2 6,-2 4,0 7,1 8,2 4,4 2,11 1,13 -3,5 -14,19 -21,26zm339 -126l0 0c-11,16 -30,25 -36,22 -9,-4 -76,-59 -136,-109l-15 18c22,19 83,70 118,96 8,12 0,26 -4,32 -8,12 -21,18 -27,16 -15,-5 -81,-54 -118,-83l-14 18c7,6 59,46 95,70 4,12 2,23 -6,31 -8,8 -19,10 -29,6 -8,-3 -57,-37 -89,-60l-13 19c11,8 57,41 81,56 -1,7 -5,12 -9,16 -8,5 -19,3 -27,0 -19,-7 -43,-17 -70,-34 0,-1 1,-2 1,-2 7,-12 7,-30 -5,-42 -6,-5 -15,-8 -24,-8 4,-13 2,-29 -9,-40 -7,-6 -17,-10 -28,-10 -6,0 -12,1 -17,3 4,-13 3,-30 -9,-42 -7,-7 -18,-11 -30,-11 -9,0 -18,3 -24,8 0,-9 -3,-18 -11,-25 -6,-6 -15,-10 -25,-10 -9,0 -17,3 -23,9l-2 1c-2,2 -5,4 -7,7l-20 -17 118 -253c11,-1 28,-4 52,-9 20,-5 44,-10 54,-10 0,0 0,0 0,0 9,0 21,4 32,9 -6,3 -13,5 -19,8 -38,14 -71,27 -78,60 -3,16 -8,34 -13,52 -16,58 -28,104 0,113 4,1 9,1 13,1 34,0 77,-32 90,-48 12,-15 16,-38 18,-51 8,-1 18,-2 33,-6 5,-1 9,-2 12,-3l-1 1c82,62 215,166 225,176 7,8 0,19 -4,25zm14 -46l0 0c-19,-17 -69,-57 -118,-94 1,0 2,0 2,0 40,13 84,8 104,5l34 72 -22 17z"/>
  </g>
  <path class="fil1" d="M303 390c-38,0 -69,-30 -69,-67l0 -253c0,-1 0,-1 0,-2l-167 0c-36,0 -64,28 -64,62l0 235c0,34 28,62 64,62l50 0c-14,33 -31,73 -38,90 -9,21 2,27 23,10 21,-17 81,-64 128,-100l356 0c26,0 49,-15 59,-37l-342 0z"/>
  <path class="fil0" d="M847 11l-528 0c-36,0 -65,28 -65,63l0 238c0,35 29,63 65,63l362 0c48,38 109,85 130,102 22,18 33,12 23,-10 -7,-17 -24,-58 -38,-92l51 0c36,0 65,-28 65,-63l0 -238c0,-35 -29,-63 -65,-63z"/>
  <path class="fil2" d="M837 79l-444 0c-3,0 -5,2 -5,4l0 17c0,2 2,4 5,4l444 0c3,0 5,-2 5,-4l0 -17c0,-2 -2,-4 -5,-4z"/>
  <path class="fil2" d="M836 142l-507 0c-3,0 -5,2 -5,4l0 17c0,2 2,4 5,4l507 0c3,0 6,-2 6,-4l0 -17c0,-2 -3,-4 -6,-4z"/>
  <path class="fil2" d="M836 205l-507 0c-3,0 -5,2 -5,4l0 17c0,2 2,4 5,4l507 0c3,0 6,-2 6,-4l0 -17c0,-2 -3,-4 -6,-4z"/>
  <path class="fil2" d="M612 268l-285 0c-2,0 -3,1 -3,4l0 17c0,2 1,4 3,4l285 0c2,0 3,-2 3,-4l0 -17c0,-3 -1,-4 -3,-4z"/>
 </g>
</svg>
