<?xml version="1.0" encoding="UTF-8"?>
<!DOCTYPE svg PUBLIC "-//W3C//DTD SVG 1.1//EN" "http://www.w3.org/Graphics/SVG/1.1/DTD/svg11.dtd">
<!-- Creator: CorelDRAW X7 -->
<svg xmlns="http://www.w3.org/2000/svg" xml:space="preserve" width="0.787402in" height="0.787402in" version="1.1" style="shape-rendering:geometricPrecision; text-rendering:geometricPrecision; image-rendering:optimizeQuality; fill-rule:evenodd; clip-rule:evenodd"
viewBox="0 0 787 787"
 xmlns:xlink="http://www.w3.org/1999/xlink">
 <defs>
  <style type="text/css">
   <![CDATA[
    .fil0 {fill:#FEFEFE;fill-rule:nonzero}
   ]]>
  </style>
 </defs>
 <g id="__x0023_Layer_x0020_1">
  <metadata id="CorelCorpID_0Corel-Layer"/>
  <g id="_241398392">
   <g>
    <path class="fil0" d="M673 667l-413 0c-14,0 -26,-9 -29,-23l-105 -495 -91 -16c-16,-2 -27,-18 -25,-34 3,-16 18,-27 35,-24l111 18c12,2 21,12 24,24l104 491 389 0c16,0 30,13 30,30 0,16 -14,29 -30,29z"/>
   </g>
   <g>
    <path class="fil0" d="M330 732c-27,0 -49,-21 -49,-48 0,-26 22,-48 49,-48 26,0 48,22 48,48 0,27 -22,48 -48,48zm0 -59l0 0c-7,0 -12,5 -12,11 0,6 5,11 12,11 6,0 11,-5 11,-11 0,-6 -5,-11 -11,-11z"/>
   </g>
   <g>
    <path class="fil0" d="M589 732c-26,0 -48,-21 -48,-48 0,-26 22,-48 48,-48 27,0 49,22 49,48 0,27 -22,48 -49,48zm0 -59l0 0c-6,0 -11,5 -11,11 0,6 5,11 11,11 7,0 12,-5 12,-11 0,-6 -5,-11 -12,-11z"/>
   </g>
   <g>
    <g>
     <path class="fil0" d="M683 581l-438 0c-14,0 -27,-10 -29,-24l-69 -337c-2,-9 1,-19 7,-26 6,-7 15,-10 25,-10l557 47c8,0 16,5 21,11 5,7 7,15 6,23l-50 291c-3,15 -15,25 -30,25zm-414 -59l0 0 389 0 41 -235 -486 -40 56 275z"/>
    </g>
    <g>
     <path class="fil0" d="M413 548c-9,0 -17,-6 -19,-15l-65 -301c-2,-10 4,-21 15,-23 11,-2 21,4 23,15l65 300c3,11 -4,22 -15,24 -1,0 -3,0 -4,0z"/>
    </g>
    <g>
     <path class="fil0" d="M589 548c-9,0 -17,-6 -19,-15l-65 -278c-2,-11 4,-22 15,-24 11,-3 21,4 24,15l65 278c2,11 -5,21 -15,24 -2,0 -3,0 -5,0z"/>
    </g>
    <g>
     <path class="fil0" d="M713 380c0,0 -1,0 -1,0l-516 -36c-11,-1 -19,-11 -18,-22 0,-10 10,-19 21,-18l515 36c11,1 20,10 19,21 -1,11 -10,19 -20,19z"/>
    </g>
    <g>
     <path class="fil0" d="M695 474c-1,0 -1,0 -1,0l-470 -20c-10,-1 -19,-10 -18,-21 0,-11 9,-19 20,-19l469 20c11,0 20,10 19,21 0,10 -9,19 -19,19z"/>
    </g>
   </g>
  </g>
 </g>
</svg>
