<?xml version="1.0" encoding="UTF-8"?>
<!DOCTYPE svg PUBLIC "-//W3C//DTD SVG 1.1//EN" "http://www.w3.org/Graphics/SVG/1.1/DTD/svg11.dtd">
<!-- Creator: CorelDRAW X7 -->
<svg xmlns="http://www.w3.org/2000/svg" xml:space="preserve" width="1.1811in" height="1.1811in" version="1.1" style="shape-rendering:geometricPrecision; text-rendering:geometricPrecision; image-rendering:optimizeQuality; fill-rule:evenodd; clip-rule:evenodd"
viewBox="0 0 1181 1181"
 xmlns:xlink="http://www.w3.org/1999/xlink">
 <defs>
  <style type="text/css">
   <![CDATA[
    .fil0 {fill:#848688}
    .fil2 {fill:#FEFEFE;fill-rule:nonzero}
    .fil1 {fill:#848688;fill-rule:nonzero}
   ]]>
  </style>
 </defs>
 <g id="Layer_x0020_1">
  <metadata id="CorelCorpID_0Corel-Layer"/>
  <rect class="fil0" width="1159" height="1181"/>
  <g id="_220829264">
   <path class="fil1" d="M1159 1002c0,99 -79,179 -176,179l-807 0c-97,0 -176,-80 -176,-179l0 -823c0,-99 79,-179 176,-179l807 0c97,0 176,80 176,179l0 823z"/>
   <path class="fil2" d="M889 682l19 -148 -144 0 0 -94c0,-43 12,-72 72,-72l77 0 0 -133c-13,-2 -59,-6 -112,-6 -111,0 -187,69 -187,196l0 109 -126 0 0 148 126 0 0 380 150 0 0 -380 125 0z"/>
  </g>
 </g>
</svg>
