<?xml version="1.0" encoding="UTF-8"?>
<!DOCTYPE svg PUBLIC "-//W3C//DTD SVG 1.1//EN" "http://www.w3.org/Graphics/SVG/1.1/DTD/svg11.dtd">
<!-- Creator: CorelDRAW X7 -->
<svg xmlns="http://www.w3.org/2000/svg" xml:space="preserve" width="0.246661in" height="0.246661in" version="1.1" style="shape-rendering:geometricPrecision; text-rendering:geometricPrecision; image-rendering:optimizeQuality; fill-rule:evenodd; clip-rule:evenodd"
viewBox="0 0 247 247"
 xmlns:xlink="http://www.w3.org/1999/xlink">
 <defs>
  <style type="text/css">
   <![CDATA[
    .str0 {stroke:#FEFEFE;stroke-width:6.66535}
    .fil1 {fill:none}
    .fil2 {fill:#FEFEFE}
    .fil0 {fill:#F58634}
   ]]>
  </style>
 </defs>
 <g id="Layer_x0020_1">
  <metadata id="CorelCorpID_0Corel-Layer"/>
  <rect class="fil0" x="15" y="18" width="217" height="210" rx="17" ry="17"/>
  <circle class="fil1 str0" cx="108" cy="109" r="63"/>
  <rect class="fil2" transform="matrix(0.620575 0.688361 -0.688361 0.620575 166.054 146.816)" width="80" height="26.6693" rx="17" ry="17"/>
  <circle class="fil1 str0" cx="108" cy="109" r="51"/>
  <path class="fil2" d="M125 135c-5,3 -11,5 -17,5 -17,0 -31,-14 -31,-31 0,-14 9,-26 22,-29 -8,5 -13,14 -13,25 0,17 13,31 30,31 4,0 7,-1 9,-1z"/>
 </g>
</svg>
