<?xml version="1.0" encoding="UTF-8"?>
<!DOCTYPE svg PUBLIC "-//W3C//DTD SVG 1.1//EN" "http://www.w3.org/Graphics/SVG/1.1/DTD/svg11.dtd">
<!-- Creator: CorelDRAW X7 -->
<svg xmlns="http://www.w3.org/2000/svg" xml:space="preserve" width="1.1811in" height="1.1811in" version="1.1" style="shape-rendering:geometricPrecision; text-rendering:geometricPrecision; image-rendering:optimizeQuality; fill-rule:evenodd; clip-rule:evenodd"
viewBox="0 0 1181 1181"
 xmlns:xlink="http://www.w3.org/1999/xlink">
 <defs>
  <style type="text/css">
   <![CDATA[
    .fil0 {fill:#848688}
    .fil2 {fill:#FEFEFE;fill-rule:nonzero}
    .fil1 {fill:#848688;fill-rule:nonzero}
   ]]>
  </style>
 </defs>
 <g id="Layer_x0020_1">
  <metadata id="CorelCorpID_0Corel-Layer"/>
  <rect class="fil0" width="1159" height="1181"/>
  <g id="_225790616">
   <path class="fil1" d="M1159 1002c0,99 -79,179 -176,179l-807 0c-97,0 -176,-80 -176,-179l0 -823c0,-99 79,-179 176,-179l807 0c97,0 176,80 176,179l0 823z"/>
   <path class="fil2" d="M994 374c-28,13 -57,21 -88,25 32,-19 56,-50 67,-86 -29,18 -62,31 -96,38 -28,-30 -67,-49 -111,-49 -84,0 -152,69 -152,155 0,12 1,24 4,35 -126,-7 -238,-68 -313,-162 -13,23 -21,50 -21,78 0,54 27,101 68,129 -25,-1 -48,-8 -69,-20l0 2c0,75 53,138 122,152 -13,4 -26,6 -40,6 -10,0 -19,-1 -29,-3 20,61 76,106 142,107 -52,42 -117,66 -188,66 -13,0 -25,0 -37,-2 68,44 147,70 233,70 280,0 432,-236 432,-440 0,-7 0,-14 0,-21 29,-21 55,-49 76,-80z"/>
  </g>
 </g>
</svg>
