<?xml version="1.0" encoding="UTF-8"?>
<!DOCTYPE svg PUBLIC "-//W3C//DTD SVG 1.1//EN" "http://www.w3.org/Graphics/SVG/1.1/DTD/svg11.dtd">
<!-- Creator: CorelDRAW X7 -->
<svg xmlns="http://www.w3.org/2000/svg" xml:space="preserve" width="1.1811in" height="1.1811in" version="1.1" style="shape-rendering:geometricPrecision; text-rendering:geometricPrecision; image-rendering:optimizeQuality; fill-rule:evenodd; clip-rule:evenodd"
viewBox="0 0 1181 1181"
 xmlns:xlink="http://www.w3.org/1999/xlink">
 <defs>
  <style type="text/css">
   <![CDATA[
    .fil0 {fill:#848688}
    .fil2 {fill:#FEFEFE;fill-rule:nonzero}
    .fil1 {fill:#848688;fill-rule:nonzero}
   ]]>
  </style>
 </defs>
 <g id="Layer_x0020_1">
  <metadata id="CorelCorpID_0Corel-Layer"/>
  <rect class="fil0" width="1159" height="1181"/>
  <g id="_224458656">
   <path class="fil1" d="M1159 1002c0,99 -79,179 -176,179l-807 0c-97,0 -176,-80 -176,-179l0 -823c0,-99 79,-179 176,-179l807 0c97,0 176,80 176,179l0 823z"/>
   <path class="fil2" d="M495 145l-51 0 -34 133 -35 -133 -53 0c11,32 22,63 32,95 16,47 26,83 31,107l0 138 50 0 0 -138 60 -202zm133 258l0 0 0 -89c0,-27 -4,-47 -14,-60 -12,-17 -30,-25 -52,-25 -23,0 -40,8 -53,25 -9,13 -14,33 -14,60l0 89c0,27 5,46 14,59 13,17 30,26 53,26 22,0 40,-9 52,-26 10,-13 14,-32 14,-59zm-45 8l0 0c0,24 -7,35 -21,35 -15,0 -22,-11 -22,-35l0 -106c0,-24 7,-35 22,-35 14,0 21,11 21,35l0 106zm211 74l0 0 0 -253 -44 0 0 193c-10,14 -20,21 -29,21 -6,0 -9,-3 -10,-10 -1,-2 -1,-7 -1,-18l0 -186 -45 0 0 200c0,17 2,30 4,37 5,13 15,19 29,19 17,0 34,-10 52,-31l0 28 44 0z"/>
   <path class="fil2" d="M940 792c0,58 0,120 -13,177 -9,40 -41,69 -79,74 -92,10 -184,10 -276,10 -92,0 -185,0 -276,-10 -39,-5 -71,-34 -80,-74 -12,-57 -12,-119 -12,-177 0,-59 0,-121 13,-178 9,-40 41,-69 79,-74 92,-10 184,-10 276,-10 92,0 185,0 276,10 38,5 70,34 79,74 13,57 13,119 13,178z"/>
   <path class="fil1" d="M414 665l0 -47 -155 0 0 47 52 0 0 289 49 0 0 -289 54 0zm90 289l0 0 0 -27c-18,20 -35,30 -51,30 -15,0 -24,-5 -29,-18 -2,-8 -4,-20 -4,-37l0 -198 45 0 0 184c0,11 0,16 0,18 1,7 5,10 11,10 8,0 18,-7 28,-21l0 -191 44 0 0 250 -44 0zm169 -72l0 0c0,23 -7,34 -20,34 -7,0 -14,-3 -22,-11l0 -153c8,-7 15,-11 22,-11 13,0 20,12 20,35l0 106zm44 -3l0 0 0 -100c0,-24 -1,-40 -4,-50 -6,-19 -18,-28 -36,-28 -16,0 -31,9 -46,27l0 -110 -44 0 0 336 44 0 0 -24c15,18 30,27 46,27 18,0 30,-9 36,-28 3,-10 4,-27 4,-50zm124 -80l0 0 -45 0 0 -23c0,-23 8,-35 23,-35 14,0 22,12 22,35l0 23zm44 75l0 0 0 -7 -45 0c0,18 -1,28 -1,31 -3,12 -9,18 -20,18 -15,0 -23,-11 -23,-35l0 -44 89 0 0 -52c0,-27 -4,-46 -13,-59 -13,-17 -31,-25 -53,-25 -23,0 -40,8 -53,25 -10,13 -14,32 -14,59l0 88c0,26 5,46 14,59 13,17 31,25 54,25 23,0 42,-9 54,-27 5,-8 9,-17 10,-27 1,-4 1,-15 1,-29z"/>
  </g>
 </g>
</svg>
