<?xml version="1.0" encoding="UTF-8"?>
<!DOCTYPE svg PUBLIC "-//W3C//DTD SVG 1.1//EN" "http://www.w3.org/Graphics/SVG/1.1/DTD/svg11.dtd">
<!-- Creator: CorelDRAW X7 -->
<svg xmlns="http://www.w3.org/2000/svg" xml:space="preserve" width="0.23622in" height="0.23622in" version="1.1" style="shape-rendering:geometricPrecision; text-rendering:geometricPrecision; image-rendering:optimizeQuality; fill-rule:evenodd; clip-rule:evenodd"
viewBox="0 0 236 236"
 xmlns:xlink="http://www.w3.org/1999/xlink"
 enable-background="new 0 0 20 20">
 <defs>
  <style type="text/css">
   <![CDATA[
    .str0 {stroke:#D2D8D8;stroke-width:20.8346;stroke-linecap:round;stroke-linejoin:round}
    .fil0 {fill:none}
   ]]>
  </style>
 </defs>
 <g id="Layer_x0020_1">
  <metadata id="CorelCorpID_0Corel-Layer"/>
  <path class="fil0 str0" d="M118 24l0 0c24,0 42,20 42,43l0 18c0,24 -19,44 -42,44l0 0c-23,0 -42,-20 -42,-43l0 -19c0,-23 19,-43 42,-43z"/>
  <path class="fil0 str0" d="M157 108c19,0 37,14 41,34l4 20c6,26 -14,50 -41,50l-85 0c-27,0 -46,-24 -41,-50l4 -20c4,-20 21,-34 42,-34"/>
 </g>
</svg>
