<?xml version="1.0" encoding="UTF-8"?>
<!DOCTYPE svg PUBLIC "-//W3C//DTD SVG 1.1//EN" "http://www.w3.org/Graphics/SVG/1.1/DTD/svg11.dtd">
<!-- Creator: CorelDRAW X7 -->
<svg xmlns="http://www.w3.org/2000/svg" xml:space="preserve" width="0.23622in" height="0.23622in" version="1.1" style="shape-rendering:geometricPrecision; text-rendering:geometricPrecision; image-rendering:optimizeQuality; fill-rule:evenodd; clip-rule:evenodd"
viewBox="0 0 236 236"
 xmlns:xlink="http://www.w3.org/1999/xlink"
 enable-background="new 0 0 20 20">
 <defs>
  <style type="text/css">
   <![CDATA[
    .str1 {stroke:#D2D8D8;stroke-width:20.8346}
    .str2 {stroke:#D2D8D8;stroke-width:6.94488}
    .str0 {stroke:#D2D8D8;stroke-width:18.0551}
    .fil0 {fill:none}
   ]]>
  </style>
 </defs>
 <g id="Layer_x0020_1">
  <metadata id="CorelCorpID_0Corel-Layer"/>
  <rect class="fil0 str0" transform="matrix(1.04817 -0.530839 0.716976 1.41571 29.0465 53.3267)" width="90.2795" height="106.776" rx="9" ry="9"/>
  <line class="fil0 str1" x1="71" y1="125" x2="158" y2= "81" />
  <rect class="fil0 str2" transform="matrix(0.80746 -0.408932 0.37688 0.744171 94.0592 134.281)" width="8.6811" height="9.54724"/>
  <rect class="fil0 str2" transform="matrix(0.80746 -0.408932 0.37688 0.744171 110.882 125.761)" width="8.6811" height="9.54724"/>
  <rect class="fil0 str2" transform="matrix(0.80746 -0.408932 0.37688 0.744171 127.705 117.241)" width="8.6811" height="9.54724"/>
  <rect class="fil0 str2" transform="matrix(0.80746 -0.408932 0.37688 0.744171 144.529 108.721)" width="8.6811" height="9.54724"/>
  <rect class="fil0 str2" transform="matrix(0.80746 -0.408932 0.37688 0.744171 103.232 151.959)" width="8.6811" height="9.54724"/>
  <rect class="fil0 str2" transform="matrix(0.80746 -0.408932 0.37688 0.744171 120.055 143.439)" width="8.6811" height="9.54724"/>
  <rect class="fil0 str2" transform="matrix(0.80746 -0.408932 0.37688 0.744171 136.878 134.919)" width="8.6811" height="9.54724"/>
  <rect class="fil0 str2" transform="matrix(0.80746 -0.408932 0.37688 0.744171 153.701 126.399)" width="8.6811" height="9.54724"/>
  <rect class="fil0 str2" transform="matrix(0.80746 -0.408932 0.37688 0.744171 129.129 161.365)" width="8.6811" height="9.54724"/>
  <rect class="fil0 str2" transform="matrix(0.80746 -0.408932 0.37688 0.744171 145.953 152.845)" width="8.6811" height="9.54724"/>
 </g>
</svg>
