<?xml version="1.0" encoding="UTF-8"?>
<!DOCTYPE svg PUBLIC "-//W3C//DTD SVG 1.1//EN" "http://www.w3.org/Graphics/SVG/1.1/DTD/svg11.dtd">
<!-- Creator: CorelDRAW X7 -->
<svg xmlns="http://www.w3.org/2000/svg" xml:space="preserve" width="1.66772in" height="0.287008in" version="1.1" style="shape-rendering:geometricPrecision; text-rendering:geometricPrecision; image-rendering:optimizeQuality; fill-rule:evenodd; clip-rule:evenodd"
viewBox="0 0 1668 287"
 xmlns:xlink="http://www.w3.org/1999/xlink">
 <defs>
  <style type="text/css">
   <![CDATA[
    .fil2 {fill:#FEFEFE}
    .fil0 {fill:#D2D3D5}
    .fil1 {fill:#96989A}
   ]]>
  </style>
 </defs>
 <g id="Layer_x0020_1">
  <metadata id="CorelCorpID_0Corel-Layer"/>
  <polygon class="fil0" points="1587,103 1613,25 1662,25 1619,140 1666,262 1615,262 1587,179 "/>
  <polygon class="fil1" points="1563,103 1589,25 1638,25 1595,140 1642,262 1591,262 1563,179 "/>
  <path class="fil2" d="M126 262l-31 0c-2,-2 -3,-5 -5,-8 -1,-3 -2,-7 -3,-10 -3,7 -8,13 -14,17 -7,4 -15,6 -25,6 -16,0 -27,-4 -35,-12 -7,-8 -11,-21 -11,-38l0 -141c0,-21 5,-35 14,-43 9,-9 25,-13 48,-13 22,0 38,4 47,12 10,9 15,22 15,41l0 18 -47 0c0,-1 0,-2 0,-3 0,-2 0,-3 0,-6 0,-7 -1,-12 -3,-15 -3,-4 -7,-5 -12,-5 -6,0 -9,1 -11,4 -3,3 -4,10 -4,19l0 107c0,15 1,24 4,27 2,4 5,6 11,6 5,0 9,-2 11,-5 2,-3 4,-7 4,-13l0 -46 -15 0 0 -43 62 0 0 144zm16 -237l46 0 0 172c0,13 1,21 3,24 2,3 6,5 11,5 5,0 9,-2 11,-5 2,-3 3,-11 3,-24l0 -2 0 -170 46 0 0 187c0,20 -5,35 -14,43 -9,8 -24,12 -46,12 -22,0 -38,-4 -47,-12 -9,-8 -13,-23 -13,-43l0 -187zm184 42l0 152c3,0 5,1 8,1 3,0 5,0 5,0 6,0 10,-1 13,-4 2,-2 3,-7 3,-13l0 -120c0,-6 -1,-10 -4,-12 -2,-3 -7,-4 -14,-4 -3,0 -5,0 -7,0 -1,0 -3,0 -4,0zm11 -42c24,0 41,3 51,10 10,7 15,19 15,36l0 144c0,17 -5,30 -15,37 -10,7 -27,10 -51,10l-57 0 0 -237 57 0zm64 237l40 -237 64 0 41 237 -49 0 -6 -41 -36 0 -5 41 -49 0zm59 -85l26 0 -13 -112 -13 112zm176 85c-9,-33 -17,-65 -25,-97 -8,-32 -15,-64 -22,-95l1 192 -43 0 0 -237 64 0c10,36 19,70 27,102 8,32 15,62 21,90l-1 -192 43 0 0 237 -65 0zm204 0l-32 0c-1,-2 -3,-5 -4,-8 -1,-3 -3,-7 -3,-10 -3,7 -8,13 -14,17 -7,4 -15,6 -26,6 -15,0 -27,-4 -34,-12 -7,-8 -11,-21 -11,-38l0 -141c0,-21 4,-35 14,-43 9,-9 25,-13 48,-13 22,0 38,4 47,12 10,9 15,22 15,41l0 18 -47 0c0,-1 0,-2 0,-3 0,-2 0,-3 0,-6 0,-7 -1,-12 -4,-15 -2,-4 -6,-5 -11,-5 -6,0 -10,1 -12,4 -2,3 -3,10 -3,19l0 107c0,15 1,24 3,27 2,4 6,6 12,6 5,0 8,-2 11,-5 2,-3 4,-7 4,-13l0 -46 -15 0 0 -43 62 0 0 144zm65 -237l0 194 51 0 0 43 -99 0 0 -237 48 0zm110 0l0 237 -48 0 0 -237 48 0zm14 164l46 0c0,1 0,2 0,4 0,3 0,4 0,5 0,9 1,16 3,20 2,4 6,6 12,6 5,0 9,-2 11,-5 3,-2 4,-7 4,-14 0,-9 -1,-16 -4,-21 -2,-5 -8,-11 -16,-18 -12,-10 -21,-18 -27,-23 -5,-5 -9,-9 -12,-12 -4,-5 -8,-9 -10,-12 -2,-3 -3,-6 -4,-9 -2,-3 -3,-7 -3,-12 -1,-4 -1,-10 -1,-18 0,-21 5,-37 15,-46 10,-9 27,-14 50,-14 20,0 35,5 44,15 9,10 14,26 14,47 0,3 -1,7 -1,12 0,1 0,2 0,2l-46 0 0 -8c0,-9 -1,-16 -3,-19 -2,-4 -6,-6 -11,-6 -5,0 -9,2 -11,5 -2,3 -3,7 -3,14 0,12 6,22 17,32 3,2 4,3 5,4 11,9 19,16 26,23 6,6 11,10 13,13 4,5 7,10 9,14 2,4 4,9 5,13 0,2 0,4 1,8 0,4 0,9 0,16 0,23 -5,39 -14,48 -9,9 -24,14 -47,14 -22,0 -38,-5 -48,-14 -10,-10 -15,-25 -15,-47 0,-2 0,-6 1,-13 0,-2 0,-3 0,-4zm157 73l0 -193 -35 0 0 -44 117 0 0 44 -35 0 0 193 -47 0zm133 -143c1,0 2,1 3,1 1,0 3,0 5,0 7,0 12,-2 15,-4 3,-3 5,-7 5,-13l0 -21c0,-5 -2,-9 -5,-12 -4,-3 -9,-4 -16,-4 -2,0 -3,0 -4,0 -1,0 -2,0 -3,0l0 53zm31 132l0 -73c0,-6 -1,-11 -5,-14 -4,-3 -9,-5 -16,-5 -1,0 -3,0 -4,1 -1,0 -3,0 -6,0l0 102 -45 0 0 -237 64 0c17,0 31,4 41,11 9,8 14,19 14,32l0 35c0,10 -3,18 -8,24 -6,7 -14,10 -24,11 12,1 21,5 27,12 6,6 9,17 9,30l0 71c0,2 1,4 2,6 1,2 2,4 4,5l-46 0c-3,-1 -4,-2 -5,-4 -1,-2 -2,-4 -2,-7zm111 -226l0 237 -48 0 0 -237 48 0zm19 237l0 -237 46 0 0 113 38 -113 49 0 -43 115 47 122 -51 0 -40 -117 0 117 -46 0z"/>
 </g>
</svg>
